<svg width="886" height="358" viewBox="0 0 886 358" fill="none" xmlns="http://www.w3.org/2000/svg">
<path d="M359.818 151.378L352.976 247.579H247.74L240.901 200.664L310.95 212.213L317.245 180.326L237.859 166.718L232.135 135.479L259.293 73.8051L341.541 73.8275L329.219 114.783L285.882 115.253L278.559 131.879L359.818 151.378Z" fill="#F2EBE3"/>
<path d="M751.076 73.8051H661.618L657.895 247.579H777.039L766.719 197.175L708.656 202.207L694.389 122.476L737.346 115.253L751.076 73.8051Z" fill="#F2EBE3"/>
<path d="M886 247.578H794.327L784.768 0.759766H836.48L836.446 203.693L874.059 190.22L886 247.578Z" fill="#F2EBE3"/>
<path d="M229.232 247.578L213.701 134.316L180.628 132.967L180.259 247.579L229.232 247.578Z" fill="#F2EBE3"/>
<path d="M180.74 73.8051H234.453L213.701 114.783L180.74 112.836V73.8051Z" fill="#F2EBE3"/>
<path fill-rule="evenodd" clip-rule="evenodd" d="M161.908 88.2279L161.729 0.759766H102.325L109.067 73.8046L0 86.1774L13.8275 247.589H162.288L161.919 88.2391L161.908 88.2279ZM55.7225 203.391L42.4368 129.158L114.21 115.252L123.188 198.818L55.7672 203.391H55.7225Z" fill="#F2EBE3"/>
<path d="M866.076 115.253H755.843L768.343 73.8051L859.073 73.8043L866.076 115.253Z" fill="#F2EBE3"/>
<path d="M480.882 247.578H383.082V0.759766H434.794L425.212 203.693L468.94 190.22L480.882 247.578Z" fill="#F2EBE3"/>
<path d="M462.914 115.398L346.773 115.253L359.285 73.8051H456.988L462.914 115.398Z" fill="#F2EBE3"/>
<path d="M636.427 247.612L637.803 134.215L604.472 134.349L588.942 247.612H636.45H636.416H636.427Z" fill="#F2EBE3"/>
<path d="M637.803 115.476H608.251L593.027 73.8051L640.572 73.8043L637.803 115.476Z" fill="#F2EBE3"/>
<path d="M531.2 151.635L556.827 247.69H498.648L472.245 73.8275L513.303 73.8043L522.728 112.323L548.336 73.8043H566.259L586.173 117.745L531.2 151.635Z" fill="#F2EBE3"/>
<path fill-rule="evenodd" clip-rule="evenodd" d="M406.179 355.67C409.576 356.999 413.317 357.664 417.403 357.664C421.44 357.664 425.132 356.999 428.479 355.67C431.876 354.341 434.83 352.47 437.341 350.058C439.851 347.646 441.771 344.791 443.1 341.492C444.478 338.194 445.168 334.576 445.168 330.638C445.168 326.749 444.478 323.18 443.1 319.931C441.771 316.632 439.851 313.777 437.341 311.365C434.83 308.953 431.876 307.082 428.479 305.753C425.132 304.424 421.415 303.759 417.329 303.759C413.293 303.759 409.576 304.424 406.179 305.753C402.783 307.082 399.829 308.953 397.318 311.365C394.808 313.777 392.863 316.632 391.485 319.931C390.156 323.18 389.491 326.773 389.491 330.712C389.491 334.601 390.156 338.194 391.485 341.492C392.863 344.791 394.808 347.646 397.318 350.058C399.829 352.47 402.783 354.341 406.179 355.67ZM421.908 342.009C420.529 342.6 419.003 342.895 417.329 342.895C415.656 342.895 414.105 342.6 412.677 342.009C411.299 341.419 410.068 340.582 408.985 339.499C407.951 338.366 407.139 337.062 406.548 335.585C406.007 334.108 405.736 332.484 405.736 330.712C405.736 328.939 406.007 327.315 406.548 325.838C407.139 324.361 407.951 323.081 408.985 321.998C410.068 320.866 411.299 320.004 412.677 319.414C414.105 318.823 415.656 318.528 417.329 318.528C419.003 318.528 420.529 318.823 421.908 319.414C423.335 320.004 424.566 320.866 425.6 321.998C426.683 323.081 427.495 324.361 428.036 325.838C428.627 327.315 428.923 328.939 428.923 330.712C428.923 332.484 428.627 334.108 428.036 335.585C427.495 337.062 426.683 338.366 425.6 339.499C424.566 340.582 423.335 341.419 421.908 342.009Z" fill="#F2EBE3"/>
<path fill-rule="evenodd" clip-rule="evenodd" d="M165.952 305.236V356.925H190.468C193.175 356.925 195.686 356.605 197.999 355.965C200.362 355.325 202.43 354.341 204.202 353.012C206.024 351.683 207.427 350.034 208.411 348.064C209.396 346.046 209.888 343.683 209.888 340.976C209.888 338.76 209.42 336.791 208.485 335.068C207.55 333.345 206.245 331.893 204.571 330.712C203.485 329.913 202.274 329.259 200.938 328.75C202.65 327.985 204.009 326.867 205.014 325.395C206.442 323.377 207.156 320.817 207.156 317.715C207.156 315.205 206.467 313.014 205.088 311.143C203.759 309.273 201.79 307.821 199.181 306.787C196.621 305.753 193.471 305.236 189.729 305.236H165.952ZM190.025 344.372H180.721V336.102H189.655C190.689 336.102 191.551 336.274 192.24 336.619C192.929 336.914 193.446 337.357 193.791 337.948C194.184 338.49 194.381 339.179 194.381 340.016C194.381 340.951 194.209 341.763 193.864 342.452C193.52 343.092 193.028 343.585 192.388 343.929C191.748 344.225 190.96 344.372 190.025 344.372ZM186.997 325.469H180.721V317.789H186.849C188.622 317.789 189.877 318.158 190.615 318.897C191.403 319.586 191.797 320.497 191.797 321.629C191.797 322.466 191.625 323.18 191.28 323.77C190.985 324.312 190.468 324.73 189.729 325.026C189.04 325.321 188.129 325.469 186.997 325.469Z" fill="#F2EBE3"/>
<path d="M241.448 334.042V356.925H257.546V333.905L276.449 305.236H259.17L249.452 320.537L238.79 305.236H221.068L241.448 334.042Z" fill="#F2EBE3"/>
<path d="M328.107 356.925V346.661L348.632 319.561H330.027V305.236H370.197V315.426L349.108 343.486H371.009V356.925H328.107Z" fill="#F2EBE3"/>
<path d="M465.473 356.925V305.236H479.208L492.479 326.834L505.939 305.236H519.23V356.925H503.871V344.594C503.871 340.163 503.969 336.176 504.166 332.631C504.201 332.13 504.239 331.628 504.28 331.127L494.641 346.071H489.767L480.404 331.292L480.443 331.922L480.463 332.262C480.709 335.708 480.832 339.819 480.832 344.594V356.925H465.473Z" fill="#F2EBE3"/>
<path fill-rule="evenodd" clip-rule="evenodd" d="M555.833 305.236L535.084 356.925H550.59L553.401 349.246H570.375L573.186 356.925H588.988L568.386 305.236H555.833ZM566.402 338.391L564.915 334.33C564.374 332.804 563.906 331.499 563.513 330.416C563.119 329.333 562.774 328.324 562.479 327.389L562.303 326.798L562.108 326.126L561.956 325.593C561.769 326.209 561.575 326.807 561.371 327.389C561.076 328.324 560.707 329.333 560.264 330.416C559.87 331.499 559.402 332.804 558.861 334.33L557.374 338.391H566.402Z" fill="#F2EBE3"/>
<path d="M613.476 356.925V318.823H597.526V305.236H645.818V318.823H629.426V356.925H613.476Z" fill="#F2EBE3"/>
<path fill-rule="evenodd" clip-rule="evenodd" d="M676.876 355.67C680.273 356.999 684.014 357.664 688.1 357.664C692.137 357.664 695.829 356.999 699.176 355.67C702.573 354.341 705.526 352.47 708.037 350.058C710.548 347.646 712.468 344.791 713.797 341.492C715.175 338.194 715.864 334.576 715.864 330.638C715.864 326.749 715.175 323.18 713.797 319.931C712.468 316.632 710.548 313.777 708.037 311.365C705.526 308.953 702.573 307.082 699.176 305.753C695.829 304.424 692.112 303.759 688.026 303.759C683.989 303.759 680.273 304.424 676.876 305.753C673.479 307.082 670.526 308.953 668.015 311.365C665.504 313.777 663.56 316.632 662.181 319.931C660.852 323.18 660.188 326.773 660.188 330.712C660.188 334.601 660.852 338.194 662.181 341.492C663.56 344.791 665.504 347.646 668.015 350.058C670.526 352.47 673.479 354.341 676.876 355.67ZM692.604 342.009C691.226 342.6 689.7 342.895 688.026 342.895C686.352 342.895 684.802 342.6 683.374 342.009C681.996 341.419 680.765 340.582 679.682 339.499C678.648 338.366 677.836 337.062 677.245 335.585C676.704 334.108 676.433 332.484 676.433 330.712C676.433 328.939 676.704 327.315 677.245 325.838C677.836 324.361 678.648 323.081 679.682 321.998C680.765 320.866 681.996 320.004 683.374 319.414C684.802 318.823 686.352 318.528 688.026 318.528C689.7 318.528 691.226 318.823 692.604 319.414C694.032 320.004 695.263 320.866 696.296 321.998C697.379 323.081 698.192 324.361 698.733 325.838C699.324 327.315 699.619 328.939 699.619 330.712C699.619 332.484 699.324 334.108 698.733 335.585C698.192 337.062 697.379 338.366 696.296 339.499C695.263 340.582 694.032 341.419 692.604 342.009Z" fill="#F2EBE3"/>
</svg>
